<svg width="25" height="24" viewBox="0 0 25 24" fill="none" xmlns="http://www.w3.org/2000/svg">
<g id="ci:font">
<path id="Vector" d="M13.333 18L8.33301 6L3.33301 18M11.333 14H5.33301M21.333 18V15M21.333 15V12M21.333 15C21.333 15.7956 21.0169 16.5587 20.4543 17.1213C19.8917 17.6839 19.1287 18 18.333 18C17.5374 18 16.7743 17.6839 16.2117 17.1213C15.6491 16.5587 15.333 15.7956 15.333 15C15.333 14.2044 15.6491 13.4413 16.2117 12.8787C16.7743 12.3161 17.5374 12 18.333 12C19.1287 12 19.8917 12.3161 20.4543 12.8787C21.0169 13.4413 21.333 14.2044 21.333 15Z" stroke="white" stroke-width="2" stroke-linecap="round" stroke-linejoin="round"/>
</g>
</svg>
