<svg width="55" height="55" viewBox="0 0 55 55" fill="none" xmlns="http://www.w3.org/2000/svg">
<g id="fluent:mail-20-filled">
<rect width="55" height="55" rx="27.5" fill="#16161B"/>
<path id="Vector" d="M42.5 21.4865V35.1923C42.5 36.4674 42.0061 37.6902 41.1271 38.5919C40.248 39.4935 39.0557 40 37.8125 40H17.1875C15.9443 40 14.752 39.4935 13.8729 38.5919C12.9939 37.6902 12.5 36.4674 12.5 35.1923V21.4865L27.0238 30.2519C27.168 30.3392 27.3325 30.3852 27.5 30.3852C27.6675 30.3852 27.832 30.3392 27.9762 30.2519L42.5 21.4865ZM37.8125 15C38.9659 14.9998 40.0789 15.4358 40.9385 16.2245C41.7981 17.0132 42.3441 18.0993 42.4719 19.275L27.5 28.3077L12.5281 19.275C12.6559 18.0993 13.2019 17.0132 14.0615 16.2245C14.9211 15.4358 16.0341 14.9998 17.1875 15H37.8125Z" fill="white"/>
</g>
</svg>
