<svg width="29" height="28" viewBox="0 0 29 28" fill="none" xmlns="http://www.w3.org/2000/svg">
<g id="fluent:call-16-filled">
<path id="Vector" d="M12.323 12.2919L14.2025 10.5699C14.7165 10.0981 15.0777 9.48356 15.2398 8.80504C15.402 8.12653 15.3576 7.41504 15.1125 6.7619L14.311 4.62165C14.0116 3.82263 13.4188 3.16784 12.6534 2.79066C11.888 2.41349 11.0076 2.34232 10.1915 2.59165C7.18854 3.5104 4.88029 6.30165 5.59079 9.61615C6.05804 11.7966 6.95229 14.5336 8.64629 17.4456C10.3438 20.3646 12.2828 22.5206 13.9453 24.0361C16.4548 26.3199 20.0423 25.7494 22.3505 23.5969C22.9693 23.02 23.3447 22.2288 23.4003 21.3847C23.4559 20.5406 23.1875 19.707 22.6498 19.0539L21.1798 17.2689C20.7364 16.7291 20.1417 16.3343 19.4721 16.1354C18.8025 15.9364 18.0887 15.9423 17.4225 16.1524L14.9935 16.9171C14.3663 16.2698 13.8165 15.5515 13.3555 14.7769C12.9106 13.9935 12.5638 13.1583 12.323 12.2901V12.2919Z" fill="white"/>
</g>
</svg>
