<svg width="25" height="24" viewBox="0 0 25 24" fill="none" xmlns="http://www.w3.org/2000/svg">
<g id="tabler:shopping-bag">
<g id="Group">
<path id="Vector" d="M6.83129 8H18.1703C18.4587 7.99997 18.7436 8.06229 19.0057 8.1827C19.2677 8.30311 19.5006 8.47876 19.6883 8.6976C19.8761 8.91645 20.0144 9.17331 20.0936 9.45059C20.1728 9.72786 20.1911 10.019 20.1473 10.304L18.8923 18.456C18.7833 19.1644 18.4243 19.8105 17.8803 20.2771C17.3362 20.7438 16.6431 21.0002 15.9263 21H9.07429C8.35769 21 7.66477 20.7434 7.12092 20.2768C6.57707 19.8102 6.21822 19.1643 6.10929 18.456L4.85429 10.304C4.81046 10.019 4.82878 9.72786 4.908 9.45059C4.98722 9.17331 5.12545 8.91645 5.31324 8.6976C5.50102 8.47876 5.73391 8.30311 5.99594 8.1827C6.25796 8.06229 6.54293 7.99997 6.83129 8Z" stroke="white" stroke-width="2" stroke-linecap="round" stroke-linejoin="round"/>
<path id="Vector_2" d="M9.5 11V6C9.5 5.20435 9.81607 4.44129 10.3787 3.87868C10.9413 3.31607 11.7044 3 12.5 3C13.2956 3 14.0587 3.31607 14.6213 3.87868C15.1839 4.44129 15.5 5.20435 15.5 6V11" stroke="white" stroke-width="2" stroke-linecap="round" stroke-linejoin="round"/>
</g>
</g>
</svg>
